<?xml version="1.0" encoding="UTF-8"?>
<svg version="1.1" xmlns="http://www.w3.org/2000/svg" width="1024" height="1024">
<path d="M0 0 C337.92 0 675.84 0 1024 0 C1024 337.92 1024 675.84 1024 1024 C686.08 1024 348.16 1024 0 1024 C0 686.08 0 348.16 0 0 Z " fill="#101922" transform="translate(0,0)"/>
<path d="M0 0 C1.01229069 -0.00436032 2.02458139 -0.00872064 3.06754756 -0.0132131 C6.44510302 -0.0241241 9.82224639 -0.01376651 13.19979858 -0.00342751 C15.65158611 -0.00688569 18.10337208 -0.01165134 20.5551548 -0.01760924 C25.87837716 -0.02751525 31.20147909 -0.02813324 36.52469635 -0.02046776 C44.44061171 -0.00909986 52.35645028 -0.01493212 60.27236515 -0.02409268 C74.41181583 -0.0398767 88.55122579 -0.03852599 102.69068033 -0.02985594 C115.0644313 -0.02230594 127.43816736 -0.02034073 139.81192017 -0.02392387 C140.63305765 -0.02415303 141.45419512 -0.02438218 142.30021556 -0.02461828 C145.63357416 -0.02555232 148.96693275 -0.02650752 152.30029134 -0.02749758 C183.56259635 -0.03667227 214.82487546 -0.02835785 246.08717647 -0.01220688 C273.85503704 0.00202967 301.62285634 0.00075578 329.39071655 -0.01358986 C360.59625316 -0.02965765 391.80176688 -0.03602157 423.00730705 -0.02675307 C426.33455276 -0.02579093 429.66179847 -0.02485241 432.98904419 -0.02392387 C433.80828242 -0.02368664 434.62752065 -0.02344941 435.47158428 -0.02320499 C447.83682622 -0.01979418 460.20205161 -0.0237804 472.56729126 -0.03136253 C486.6287012 -0.0399418 500.6900641 -0.03779263 514.75146818 -0.0215203 C522.61880874 -0.012716 530.48604743 -0.01212979 538.35338534 -0.02345882 C544.22895062 -0.0309858 550.10442612 -0.02281286 555.97998118 -0.0085351 C558.35600842 -0.00518377 560.73204929 -0.00688925 563.10806775 -0.01416247 C566.33922682 -0.02329468 569.56983395 -0.01391771 572.80096436 0 C573.72190408 -0.0070235 574.64284379 -0.014047 575.59169078 -0.02128333 C583.44949309 0.04629136 591.05191643 1.26916721 597.77548218 5.50252342 C603.09840179 11.33238776 606.52012786 17.73249529 606.53043401 25.70361626 C606.53396243 26.56866009 606.53749085 27.43370391 606.54112619 28.32496119 C606.53932953 29.74641577 606.53932953 29.74641577 606.53749657 31.19658661 C606.54014839 32.20954186 606.54280022 33.22249711 606.54553241 34.26614797 C606.55324131 37.68797676 606.55378519 41.10976977 606.55438232 44.53160667 C606.55839589 46.99868809 606.56283393 49.46576885 606.56766188 51.93284881 C606.57838655 58.01985098 606.58438613 64.10684212 606.58837076 70.19385112 C606.59337945 77.48297155 606.60410687 84.77208079 606.61485249 92.06119461 C606.6404841 109.68016758 606.65551813 127.2991449 606.66836296 144.91813116 C606.67261736 150.75328345 606.67718308 156.58843543 606.68194628 162.42358732 C606.70720518 193.44493295 606.72925479 224.4662791 606.74167442 255.48763275 C606.74459578 262.67521352 606.7475633 269.86279426 606.75057983 277.05037498 C606.75095074 277.94334662 606.75132165 278.83631826 606.7517038 279.75634964 C606.76386086 308.71233327 606.79480766 337.66825613 606.83650136 366.62421122 C606.87928114 396.38869621 606.90591439 426.15314912 606.91114914 455.91766569 C606.91188959 460.12093816 606.91280028 464.32421057 606.91380692 468.52748299 C606.91399753 469.35472989 606.91418814 470.1819768 606.91438454 471.03429179 C606.91789902 484.35106146 606.93820102 497.66775505 606.96460355 510.98449678 C606.99073934 524.36844234 606.99847934 537.75229994 606.98750226 551.13626738 C606.98152283 559.08828979 606.98945071 567.04001397 607.0173331 574.99199129 C607.03661057 580.92908587 607.02977304 586.86596347 607.01276393 592.80307136 C607.00995328 595.20554213 607.01562116 597.60804073 607.03057687 600.01046659 C607.04966018 603.27529048 607.03790769 606.53862367 607.01851463 609.80341339 C607.03778846 611.20379748 607.03778846 611.20379748 607.05745167 612.63247216 C606.94354792 621.35477122 603.82511324 628.21673597 597.65048218 634.37752342 C591.3678864 640.05917525 581.95893883 639.669598 573.97341728 639.63199902 C572.44651495 639.63680873 572.44651495 639.63680873 570.88876611 639.64171562 C567.48008736 639.65001255 564.07158444 639.64409232 560.66290283 639.63821983 C558.19349239 639.64124063 555.72408288 639.64512975 553.25467503 639.6498124 C547.88688137 639.65795992 542.51913907 639.6598905 537.1513443 639.65630913 C529.16930895 639.6509976 521.18731048 639.65710186 513.20527914 639.66539206 C498.12084824 639.68062838 483.03643413 639.6823376 467.95199715 639.67986903 C456.30610155 639.67803635 444.66021146 639.67979545 433.01431656 639.68409348 C431.34115944 639.68469587 429.66800231 639.68529707 427.99484519 639.68589708 C425.47358991 639.68680433 422.95233464 639.68771299 420.43107936 639.68862943 C396.9925296 639.6970581 373.5539819 639.70139514 350.11543083 639.69722271 C349.23195107 639.69706633 348.34847131 639.69690996 347.43821943 639.69674884 C342.96037613 639.69594306 338.48253284 639.69509729 334.00468956 639.69423554 C333.11537108 639.69406445 332.2260526 639.69389337 331.30978507 639.69371709 C329.51136909 639.69337044 327.71295311 639.69302191 325.91453713 639.69267151 C297.91879152 639.68731194 269.92307739 639.69525176 241.92733765 639.71370506 C210.4764796 639.7344115 179.02564106 639.74515057 147.57477582 639.74112958 C144.22285597 639.74073422 140.87093612 639.74037268 137.51901627 639.7400322 C136.69368274 639.73994146 135.86834922 639.73985073 135.01800559 639.73975725 C122.54955122 639.73859044 110.08111653 639.74524574 97.61266708 639.75584412 C83.43837643 639.76788016 69.26412918 639.76947333 55.08983789 639.75705395 C47.15501047 639.75041302 39.22028675 639.7520848 31.28546758 639.76564246 C25.3666932 639.77482989 19.44800379 639.76840003 13.52923335 639.75579467 C11.13033591 639.75312969 8.73142645 639.75557018 6.33254074 639.76353053 C3.0801245 639.7735772 -0.17174148 639.76526507 -3.42413521 639.75225353 C-4.36257206 639.75956288 -5.30100891 639.76687222 -6.26788324 639.77440307 C-15.16261917 639.70028783 -22.17097537 636.63836477 -28.59951782 630.37752342 C-31.67115689 625.71710553 -33.72273674 620.79848998 -33.72831899 615.18204111 C-33.73159118 614.32067799 -33.73486338 613.45931488 -33.73823473 612.57184985 C-33.73600929 611.14886127 -33.73600929 611.14886127 -33.7337389 609.69712543 C-33.73609113 608.6870124 -33.73844336 607.67689937 -33.74086687 606.63617685 C-33.74757606 603.21799349 -33.74709807 599.79984797 -33.74668884 596.38165855 C-33.74998628 593.9195651 -33.75371159 591.4574722 -33.75783032 588.99537998 C-33.7668173 582.91683233 -33.77108016 576.83829701 -33.77334929 570.75974445 C-33.77630861 563.481551 -33.78500446 556.20336725 -33.79376357 548.92517888 C-33.81462055 531.3312574 -33.82507991 513.73733424 -33.83389318 496.14340328 C-33.83809807 487.82187535 -33.84332029 479.50034814 -33.8485777 471.17882081 C-33.86646936 442.69944784 -33.8814657 414.22007466 -33.8888979 385.74069691 C-33.88937265 383.95230242 -33.88984854 382.16390793 -33.89032556 380.37551344 C-33.89056193 379.48861975 -33.89079831 378.60172606 -33.89104185 377.68795681 C-33.89224306 373.19442367 -33.89345851 368.70089054 -33.89468384 364.20735741 C-33.89492399 363.31559773 -33.89516414 362.42383804 -33.89541156 361.50505534 C-33.90330481 332.5909006 -33.92673641 303.67678688 -33.95923978 274.76265005 C-33.99353237 244.20113341 -34.01324853 213.63964076 -34.01654214 183.07810456 C-34.01695968 179.72350982 -34.01743925 176.3689151 -34.01796532 173.01432037 C-34.01808851 172.18831012 -34.0182117 171.36229986 -34.01833862 170.51125899 C-34.02067142 157.21397401 -34.0363359 143.91673663 -34.05680716 130.61946862 C-34.07705635 117.25445166 -34.08254677 103.88949191 -34.07303653 90.52446245 C-34.06781794 82.58359594 -34.07371582 74.64291982 -34.0955712 66.70208069 C-34.11065622 60.77324098 -34.10484779 54.84454154 -34.09090068 48.91569496 C-34.08851321 46.51656147 -34.09290679 44.11740976 -34.10472933 41.71830421 C-34.11980119 38.4581458 -34.11020732 35.19894409 -34.09450245 31.93880939 C-34.10472466 31.0065385 -34.11494686 30.0742676 -34.12547883 29.11374608 C-34.0425982 21.23493171 -32.14745358 14.42261737 -27.03701782 8.31502342 C-24.59951782 6.37752342 -24.59951782 6.37752342 -21.59951782 5.37752342 C-21.59951782 4.71752342 -21.59951782 4.05752342 -21.59951782 3.37752342 C-14.26466074 1.058422 -7.67890296 -0.05856275 0 0 Z " fill="#061F3E" transform="translate(225.59951782226563,192.6224765777588)"/>
<path d="M0 0 C1.2953215 -0.01606293 2.59064301 -0.03212585 3.92521667 -0.04867554 C5.34247173 -0.06016516 6.75973416 -0.07077333 8.17700195 -0.08056641 C8.89241465 -0.08589008 9.60782734 -0.09121376 10.3449192 -0.09669876 C14.1342321 -0.12340962 17.92351234 -0.14278803 21.71289062 -0.15722656 C24.83916623 -0.17054472 27.96478584 -0.19835933 31.09082031 -0.23925781 C34.87449741 -0.28875327 38.6575814 -0.31336822 42.44156837 -0.32045364 C43.87801402 -0.32713882 45.31444785 -0.34228939 46.75070763 -0.36634445 C60.81293038 -0.58836201 60.81293038 -0.58836201 66.22705078 3.53878784 C69.07221182 6.6746788 70.35805686 10.23943845 71.7277832 14.19287109 C72.34911097 15.779184 72.97309689 17.36445809 73.59960938 18.94873047 C74.24274306 20.64365201 74.88300717 22.33966453 75.52075195 24.03662109 C75.86786224 24.95444366 76.21497253 25.87226624 76.57260132 26.81790161 C77.68977519 29.7751229 78.80277549 32.73389155 79.9152832 35.69287109 C80.29860809 36.7098407 80.68193298 37.7268103 81.07687378 38.77459717 C85.56485989 50.68151823 90.01472966 62.59740322 94.27441406 74.58813477 C97.90174396 84.76706735 101.69740888 94.88257353 105.4777832 105.00537109 C110.44609274 118.31325055 115.36462008 131.63607589 120.1652832 145.00537109 C125.42131007 159.64000102 130.78823484 174.23181769 136.18920898 188.8135376 C141.6975181 203.6854147 147.16960763 218.56998781 152.60986328 233.46688843 C156.75569975 244.81840904 160.91705374 256.16352985 165.14550781 267.48461914 C167.78933789 274.58577472 170.35544268 281.71341613 172.9152832 288.84521484 C177.64504995 302.01283185 182.48558279 315.13803959 187.3527832 328.25537109 C188.2230841 330.60367062 189.09336373 332.95197803 189.96362305 335.30029297 C196.01164935 351.61112813 202.0985861 367.90718226 208.23413086 384.18530273 C208.52610352 384.96104141 208.81807617 385.73678009 209.11889648 386.536026 C209.65322607 387.95545606 210.18845783 389.37454705 210.72485352 390.79319763 C215.46047458 403.37804202 215.46047458 403.37804202 214.7277832 408.19287109 C212.50671249 410.94053589 210.6302066 412.06328389 207.12484741 412.56665039 C203.76090882 412.7242091 200.41960361 412.74692163 197.05200195 412.72412109 C195.81287552 412.727948 194.57374908 412.7317749 193.29707336 412.73571777 C190.0070074 412.73913375 186.71769966 412.72306975 183.42773438 412.70068359 C181.42146506 412.69289509 179.41589842 412.7006343 177.40966797 412.71435547 C173.540119 412.73915874 169.67159507 412.73604428 165.80200195 412.72412109 C164.61217209 412.73221802 163.42234222 412.74031494 162.19645691 412.74865723 C154.06476888 412.65747447 148.21648147 411.75768109 142.40014648 405.81445312 C135.08031584 394.33995071 131.34467033 380.06856265 126.8527832 367.31787109 C126.13919467 365.30613486 125.42532597 363.29449798 124.71118164 361.28295898 C120.66131319 349.84657195 116.65599896 338.39832138 113.11108398 326.79296875 C112.84537598 325.95427246 112.57966797 325.11557617 112.3059082 324.25146484 C112.09353516 323.55335693 111.88116211 322.85524902 111.66235352 322.13598633 C110.38621056 319.4826891 109.02176681 318.05606539 106.7277832 316.19287109 C103.65168768 315.59152608 103.65168768 315.59152608 100.16149902 315.68493652 C99.50345166 315.67869656 98.84540429 315.6724566 98.1674161 315.66602755 C95.96386597 315.65008092 93.76141952 315.66270701 91.55786133 315.67529297 C89.9775681 315.66987254 88.39727993 315.66275032 86.81700134 315.65405273 C82.52565831 315.63580682 78.23469965 315.64289201 73.94334984 315.65556908 C69.45420667 315.66569023 64.9650966 315.65630586 60.47595215 315.65002441 C52.93695156 315.64274542 45.39810766 315.65234229 37.85913086 315.67138672 C29.14076381 315.69315599 20.42277092 315.68610479 11.70441294 315.6640811 C4.22149657 315.64593425 -3.26130711 315.64336526 -10.74423838 315.65383577 C-15.21455933 315.66007466 -19.68470436 315.66089555 -24.15501404 315.64768982 C-28.35763008 315.63614228 -32.55976335 315.64413663 -36.76232719 315.66726685 C-38.30547216 315.67255986 -39.8486577 315.67103 -41.39178658 315.66221619 C-43.49705196 315.65129948 -45.60076634 315.66497419 -47.70593262 315.68493652 C-48.88431953 315.68644463 -50.06270645 315.68795273 -51.27680206 315.68950653 C-54.88964899 316.29662751 -56.03315094 317.35767598 -58.2722168 320.19287109 C-59.29757881 322.12155767 -59.29757881 322.12155767 -59.92871094 324.20996094 C-60.19361328 324.99478851 -60.45851563 325.77961609 -60.73144531 326.58822632 C-61.14027954 327.85818954 -61.14027954 327.85818954 -61.55737305 329.15380859 C-61.85498535 330.0441983 -62.15259766 330.93458801 -62.45922852 331.85195923 C-63.09674886 333.76243023 -63.72908384 335.67463794 -64.35671997 337.58837891 C-66.00104605 342.59786011 -67.68653281 347.59351247 -69.3659668 352.59130859 C-69.69911392 353.586203 -70.03226105 354.58109741 -70.37550354 355.60614014 C-73.04107441 363.55340019 -75.78684399 371.46751545 -78.66012573 379.34210205 C-79.31061439 381.12674513 -79.95283222 382.9143962 -80.59472656 384.70214844 C-88.47507507 406.16804643 -88.47507507 406.16804643 -96.2722168 411.19287109 C-99.41329726 412.23989791 -101.66705629 412.33833152 -104.96533203 412.36987305 C-106.13341904 412.38270828 -107.30150604 412.39554352 -108.50498962 412.4087677 C-109.76751053 412.41615463 -111.03003143 412.42354156 -112.33081055 412.43115234 C-113.62664566 412.43922409 -114.92248077 412.44729584 -116.25758362 412.45561218 C-119.00049712 412.47062149 -121.74338486 412.48046903 -124.48632812 412.48803711 C-127.99823477 412.499116 -131.50951031 412.53353992 -135.0211935 412.57320881 C-138.37437424 412.60564087 -141.72748505 412.61014973 -145.08081055 412.61865234 C-146.34130722 412.63616043 -147.60180389 412.65366852 -148.90049744 412.67170715 C-150.0717366 412.66878159 -151.24297577 412.66585602 -152.44970703 412.6628418 C-153.99500343 412.67164116 -153.99500343 412.67164116 -155.57151794 412.68061829 C-158.99972311 412.06148319 -160.17909279 410.93182055 -162.2722168 408.19287109 C-162.95586422 402.78676033 -161.59678442 398.40939206 -159.66674805 393.42724609 C-159.39145767 392.68908157 -159.1161673 391.95091705 -158.83253479 391.19038391 C-157.92724129 388.77039419 -157.00608385 386.35678161 -156.0847168 383.94287109 C-155.44445353 382.24073028 -154.80530983 380.53816797 -154.16723633 378.83520508 C-152.85314975 375.33181672 -151.53331026 371.83067708 -150.20922852 368.33105469 C-148.40677951 363.56018176 -146.63238853 358.77940174 -144.86987305 353.99365234 C-139.41869526 339.20371813 -133.85696224 324.46478017 -128.12661743 309.78070068 C-124.93964743 301.60715039 -121.88805853 293.40850659 -119.05932617 285.10400391 C-116.20891545 276.82697991 -113.04284859 268.67342526 -109.8972168 260.50537109 C-106.15662148 250.78772315 -102.44892804 241.06692827 -98.9597168 231.25537109 C-93.92769837 217.10843671 -88.66017251 203.04991238 -83.41172791 188.98219299 C-74.89747483 166.15887953 -66.46556662 143.30640807 -58.11893463 120.42126465 C-57.13199039 117.71582488 -56.14429148 115.01066085 -55.1566143 112.30548859 C-50.20004193 98.72917387 -45.25190679 85.14986849 -40.32968521 71.56105804 C-39.20809193 68.46513335 -38.08550102 65.36957032 -36.96313477 62.27392578 C-35.30782104 57.70805176 -33.65629003 53.14083559 -32.00708008 48.57275391 C-30.15463542 43.44949564 -28.2791008 38.33520522 -26.38806152 33.22607422 C-25.6231996 31.1469484 -24.86669613 29.06473411 -24.11730957 26.97998047 C-22.97771431 23.81415979 -21.81138661 20.6593227 -20.6394043 17.50537109 C-20.30393585 16.55476807 -19.96846741 15.60416504 -19.62283325 14.62475586 C-17.36021459 8.64422781 -14.76300778 4.6358864 -9.2722168 1.19287109 C-5.97361597 0.09333749 -3.47456438 0.03913871 0 0 Z " fill="#FEFEFE" transform="translate(486.272216796875,296.80712890625)"/>
<path d="M0 0 C0.99 0.33 1.98 0.66 3 1 C4.10610958 3.37421364 5.01272913 5.64107728 5.8671875 8.10546875 C6.12724579 8.82800339 6.38730408 9.55053802 6.65524292 10.29496765 C9.01520634 16.90103958 11.24935367 23.5508665 13.4364624 30.21591187 C14.70429948 34.07645948 15.98524027 37.93266174 17.265625 41.7890625 C17.55053802 42.64753281 17.83545105 43.50600311 18.1289978 44.39048767 C22.32352663 57.00769663 26.60346408 69.59620655 30.875 82.1875 C31.30944286 83.46843303 31.74388093 84.74936768 32.17831421 86.03030396 C38.55570398 104.83225183 44.9558519 123.62637687 51.38928223 142.40922546 C52.12759351 144.56824857 52.86273464 146.72832701 53.59716797 148.88867188 C54.54669714 151.68112184 55.51139076 154.46776566 56.48486328 157.25195312 C56.94972979 158.60019646 57.41441895 159.94850097 57.87890625 161.296875 C58.28826416 162.47088867 58.69762207 163.64490234 59.11938477 164.85449219 C59.9461614 167.80769157 60.43987756 169.96816654 60 173 C56.8323935 175.11173767 56.07292249 175.25152663 52.4521637 175.26069641 C51.51984924 175.26778122 50.58753479 175.27486603 49.62696838 175.28216553 C48.09567543 175.2784494 48.09567543 175.2784494 46.53344727 175.2746582 C44.9184584 175.2823246 44.9184584 175.2823246 43.27084351 175.29014587 C39.70264161 175.30407542 36.13463214 175.30308257 32.56640625 175.30078125 C30.09162829 175.30466628 27.616851 175.30900055 25.14207458 175.31376648 C19.95105835 175.3212359 14.76011012 175.32093213 9.5690918 175.31567383 C2.90955608 175.3098778 -3.74959752 175.32680999 -10.40910244 175.3500185 C-15.52111952 175.36473423 -20.63306933 175.36563048 -25.74510384 175.36250877 C-28.20075087 175.36302306 -30.65640156 175.36828075 -33.11202812 175.37832069 C-36.54288796 175.39062587 -39.97320195 175.38392865 -43.40405273 175.37231445 C-44.42289047 175.37995819 -45.44172821 175.38760193 -46.49143982 175.39547729 C-47.4265741 175.38846298 -48.36170837 175.38144867 -49.32518005 175.3742218 C-50.1361486 175.37438954 -50.94711714 175.37455729 -51.78266048 175.37473011 C-54.51629139 174.91274682 -55.92643759 173.7928345 -58 172 C-56.00202921 164.35894213 -53.71150953 156.86273173 -51.19140625 149.37890625 C-50.82888763 148.2941803 -50.46636902 147.20945435 -50.09286499 146.09185791 C-48.91887962 142.58112668 -47.74070019 139.07181872 -46.5625 135.5625 C-45.74066039 133.10711751 -44.9191299 130.65163153 -44.09790039 128.19604492 C-42.47064244 123.33139693 -40.84195303 118.46723244 -39.21191406 113.60351562 C-36.67297964 106.02638743 -34.14502454 98.44563147 -31.62063599 90.86364746 C-30.93502984 88.80508323 -30.248759 86.74674182 -29.56225586 84.68847656 C-26.98194094 76.95184774 -24.40571688 69.21387252 -21.83345032 61.4745636 C-20.30943568 56.88993113 -18.78418158 52.30571143 -17.25881958 47.7215271 C-16.51531727 45.48605721 -15.77235792 43.25040665 -15.02999878 41.01455688 C-11.61012061 30.71510073 -8.18653006 20.41679865 -4.6171875 10.16796875 C-4.37896271 9.47552567 -4.14073792 8.78308258 -3.89529419 8.06965637 C-2.83704341 5.06265912 -1.78165005 2.67247507 0 0 Z " fill="#031A36" transform="translate(511,374)"/>
<path d="M0 0 C0.8864727 3.14533647 0.91215171 4.85814412 0 8 C0 8.99 0 9.98 0 11 C-1.17148276 13.44233235 -2.59736658 15.67688841 -4 18 C-5.35814777 13.9255567 -3.94745762 11.18531884 -2.5625 7.3125 C-2.31951172 6.61060547 -2.07652344 5.90871094 -1.82617188 5.18554688 C-1.2255056 3.45421468 -0.61380281 1.72671863 0 0 Z " fill="#010A1A" transform="translate(469,496)"/>
</svg>
